<svg id="e9otxnQZikJ1" xmlns="http://www.w3.org/2000/svg" xmlns:xlink="http://www.w3.org/1999/xlink" viewBox="0 0 1920 1080" shape-rendering="geometricPrecision" text-rendering="geometricPrecision"><line x1="-975.57009" y1="0" x2="975.57009" y2="0" transform="translate(960.954569 48.090861)" fill="none" stroke="#3f5787" stroke-width="3"/><line x1="-975.57009" y1="0" x2="975.57009" y2="0" transform="translate(960.954569 100)" fill="none" stroke="#3f5787" stroke-width="3"/><line x1="-975.57009" y1="0" x2="975.57009" y2="0" transform="translate(960.954569 150)" fill="none" stroke="#3f5787" stroke-width="3"/><line x1="-975.57009" y1="0" x2="975.57009" y2="0" transform="translate(960.954569 200)" fill="none" stroke="#3f5787" stroke-width="3"/><line x1="-975.57009" y1="0" x2="975.57009" y2="0" transform="translate(960.954569 250)" fill="none" stroke="#3f5787" stroke-width="3"/><line x1="-975.57009" y1="0" x2="975.57009" y2="0" transform="translate(960.954569 300)" fill="none" stroke="#3f5787" stroke-width="3"/><line x1="-975.57009" y1="0" x2="975.57009" y2="0" transform="translate(960.954569 350)" fill="none" stroke="#3f5787" stroke-width="3"/><line x1="-975.57009" y1="0" x2="975.57009" y2="0" transform="translate(960.954569 500)" fill="none" stroke="#3f5787" stroke-width="3"/><line x1="-975.57009" y1="0" x2="975.57009" y2="0" transform="translate(960.954569 400)" fill="none" stroke="#3f5787" stroke-width="3"/><line x1="-975.57009" y1="0" x2="975.57009" y2="0" transform="translate(960.954569 450)" fill="none" stroke="#3f5787" stroke-width="3"/><line x1="-975.57009" y1="0" x2="975.57009" y2="0" transform="translate(960.954569 550)" fill="none" stroke="#3f5787" stroke-width="3"/><line x1="-975.57009" y1="0" x2="975.57009" y2="0" transform="translate(960.954569 600)" fill="none" stroke="#3f5787" stroke-width="3"/><line x1="-975.57009" y1="0" x2="975.57009" y2="0" transform="translate(960.954569 700)" fill="none" stroke="#3f5787" stroke-width="3"/><line x1="-975.57009" y1="0" x2="975.57009" y2="0" transform="translate(960.954569 650)" fill="none" stroke="#3f5787" stroke-width="3"/><line x1="-975.57009" y1="0" x2="975.57009" y2="0" transform="translate(960.954569 0)" fill="none" stroke="#3f5787" stroke-width="3"/><line x1="-975.57009" y1="0" x2="975.57009" y2="0" transform="translate(960.954569 800)" fill="none" stroke="#3f5787" stroke-width="3"/><line x1="-975.57009" y1="0" x2="975.57009" y2="0" transform="translate(960.954569 750)" fill="none" stroke="#3f5787" stroke-width="3"/><line x1="-975.57009" y1="0" x2="975.57009" y2="0" transform="translate(960.954569 850)" fill="none" stroke="#3f5787" stroke-width="3"/><line x1="-975.57009" y1="0" x2="975.57009" y2="0" transform="translate(960.954569 900)" fill="none" stroke="#3f5787" stroke-width="3"/><line x1="-975.57009" y1="0" x2="975.57009" y2="0" transform="translate(960.954569 950)" fill="none" stroke="#3f5787" stroke-width="3"/><line x1="-975.57009" y1="0" x2="975.57009" y2="0" transform="translate(960.954569 1000)" fill="none" stroke="#3f5787" stroke-width="3"/><line x1="-975.57009" y1="0" x2="975.57009" y2="0" transform="translate(960.954569 1050)" fill="none" stroke="#3f5787" stroke-width="3"/><line x1="-975.57009" y1="0" x2="975.57009" y2="0" transform="translate(960.954569 100)" fill="none" stroke="#3f5787" stroke-width="3"/><line x1="-975.57009" y1="0" x2="975.57009" y2="0" transform="matrix(0 1-1 0-.000034 100)" fill="none" stroke="#3f5787" stroke-width="3"/><line x1="-975.57009" y1="0" x2="975.57009" y2="0" transform="matrix(0 1-1 0 50.000034 100)" fill="none" stroke="#3f5787" stroke-width="3"/><line x1="-975.57009" y1="0" x2="975.57009" y2="0" transform="matrix(0 1-1 0 100.000034 100)" fill="none" stroke="#3f5787" stroke-width="3"/><line x1="-975.57009" y1="0" x2="975.57009" y2="0" transform="matrix(0 1-1 0 150.000034 100)" fill="none" stroke="#3f5787" stroke-width="3"/><line x1="-975.57009" y1="0" x2="975.57009" y2="0" transform="matrix(0 1-1 0 250.000034 100)" fill="none" stroke="#3f5787" stroke-width="3"/><line x1="-975.57009" y1="0" x2="975.57009" y2="0" transform="matrix(0 1-1 0 200.000034 100)" fill="none" stroke="#3f5787" stroke-width="3"/><line x1="-975.57009" y1="0" x2="975.57009" y2="0" transform="matrix(0 1-1 0 300.000034 100)" fill="none" stroke="#3f5787" stroke-width="3"/><line x1="-975.57009" y1="0" x2="975.57009" y2="0" transform="matrix(0 1-1 0 350.000034 100)" fill="none" stroke="#3f5787" stroke-width="3"/><line x1="-975.57009" y1="0" x2="975.57009" y2="0" transform="matrix(0 1-1 0 400.000034 100)" fill="none" stroke="#3f5787" stroke-width="3"/><line x1="-975.57009" y1="0" x2="975.57009" y2="0" transform="matrix(0 1-1 0 500.000034 100)" fill="none" stroke="#3f5787" stroke-width="3"/><line x1="-975.57009" y1="0" x2="975.57009" y2="0" transform="matrix(0 1-1 0 450.000034 100)" fill="none" stroke="#3f5787" stroke-width="3"/><line x1="-975.57009" y1="0" x2="975.57009" y2="0" transform="matrix(0 1-1 0 550.000034 100)" fill="none" stroke="#3f5787" stroke-width="3"/><line x1="-975.57009" y1="0" x2="975.57009" y2="0" transform="matrix(0 1-1 0 600.000034 100)" fill="none" stroke="#3f5787" stroke-width="3"/><line x1="-975.57009" y1="0" x2="975.57009" y2="0" transform="matrix(0 1-1 0 650.000034 100)" fill="none" stroke="#3f5787" stroke-width="3"/><line x1="-975.57009" y1="0" x2="975.57009" y2="0" transform="matrix(0 1-1 0 700.000034 100)" fill="none" stroke="#3f5787" stroke-width="3"/><line x1="-975.57009" y1="0" x2="975.57009" y2="0" transform="matrix(0 1-1 0 750.000034 100)" fill="none" stroke="#3f5787" stroke-width="3"/><line x1="-975.57009" y1="0" x2="975.57009" y2="0" transform="matrix(0 1-1 0 800.000034 100)" fill="none" stroke="#3f5787" stroke-width="3"/><line x1="-975.57009" y1="0" x2="975.57009" y2="0" transform="matrix(0 1-1 0 850.000034 100)" fill="none" stroke="#3f5787" stroke-width="3"/><line x1="-975.57009" y1="0" x2="975.57009" y2="0" transform="matrix(0 1-1 0 900.000034 100)" fill="none" stroke="#3f5787" stroke-width="3"/><line x1="-975.57009" y1="0" x2="975.57009" y2="0" transform="matrix(0 1-1 0 950.000034 100)" fill="none" stroke="#3f5787" stroke-width="3"/><line x1="-975.57009" y1="0" x2="975.57009" y2="0" transform="matrix(0 1-1 0 1000.000034 100)" fill="none" stroke="#3f5787" stroke-width="3"/><line x1="-975.57009" y1="0" x2="975.57009" y2="0" transform="matrix(0 1-1 0 1050.000034 100)" fill="none" stroke="#3f5787" stroke-width="3"/><line x1="-975.57009" y1="0" x2="975.57009" y2="0" transform="matrix(0 1-1 0 1100.000034 100)" fill="none" stroke="#3f5787" stroke-width="3"/><line x1="-975.57009" y1="0" x2="975.57009" y2="0" transform="matrix(0 1-1 0 1150.000034 100)" fill="none" stroke="#3f5787" stroke-width="3"/><line x1="-975.57009" y1="0" x2="975.57009" y2="0" transform="matrix(0 1-1 0 1200.000034 100)" fill="none" stroke="#3f5787" stroke-width="3"/><line x1="-975.57009" y1="0" x2="975.57009" y2="0" transform="matrix(0 1-1 0 1250.000034 100)" fill="none" stroke="#3f5787" stroke-width="3"/><line x1="-975.57009" y1="0" x2="975.57009" y2="0" transform="matrix(0 1-1 0 1300.000034 100)" fill="none" stroke="#3f5787" stroke-width="3"/><line x1="-975.57009" y1="0" x2="975.57009" y2="0" transform="matrix(0 1-1 0 1350.000034 100)" fill="none" stroke="#3f5787" stroke-width="3"/><line x1="-975.57009" y1="0" x2="975.57009" y2="0" transform="matrix(0 1-1 0 1400.000034 100)" fill="none" stroke="#3f5787" stroke-width="3"/><line x1="-975.57009" y1="0" x2="975.57009" y2="0" transform="matrix(0 1-1 0 1450.000034 100)" fill="none" stroke="#3f5787" stroke-width="3"/><line x1="-975.57009" y1="0" x2="975.57009" y2="0" transform="matrix(0 1-1 0 1500.000034 100)" fill="none" stroke="#3f5787" stroke-width="3"/><line x1="-975.57009" y1="0" x2="975.57009" y2="0" transform="matrix(0 1-1 0 1550.000034 100)" fill="none" stroke="#3f5787" stroke-width="3"/><line x1="-975.57009" y1="0" x2="975.57009" y2="0" transform="matrix(0 1-1 0 1600.000034 100)" fill="none" stroke="#3f5787" stroke-width="3"/><line x1="-975.57009" y1="0" x2="975.57009" y2="0" transform="matrix(0 1-1 0 1650.000034 100)" fill="none" stroke="#3f5787" stroke-width="3"/><line x1="-975.57009" y1="0" x2="975.57009" y2="0" transform="matrix(0 1-1 0 1700.000034 100)" fill="none" stroke="#3f5787" stroke-width="3"/><line x1="-975.57009" y1="0" x2="975.57009" y2="0" transform="matrix(0 1-1 0 1750.000034 100)" fill="none" stroke="#3f5787" stroke-width="3"/><line x1="-975.57009" y1="0" x2="975.57009" y2="0" transform="matrix(0 1-1 0 1800.000034 100)" fill="none" stroke="#3f5787" stroke-width="3"/><line x1="-975.57009" y1="0" x2="975.57009" y2="0" transform="matrix(0 1-1 0 1850.000034 100)" fill="none" stroke="#3f5787" stroke-width="3"/><line x1="-975.57009" y1="0" x2="975.57009" y2="0" transform="matrix(0 1-1 0 1900.000034 100)" fill="none" stroke="#3f5787" stroke-width="3"/></svg>
